<?xml version="1.0" encoding="utf-8"?>
<!-- Generator: Adobe Illustrator 18.1.1, SVG Export Plug-In . SVG Version: 6.00 Build 0)  -->
<svg version="1.1" xmlns="http://www.w3.org/2000/svg" xmlns:xlink="http://www.w3.org/1999/xlink" x="0px" y="0px"
	 viewBox="0 0 300 300" enable-background="new 0 0 300 300" xml:space="preserve">
<g id="Layer_2">
</g>
<g id="Layer_1">
	<path fill="#FFE3DB" stroke="#665444" stroke-width="3" stroke-miterlimit="10" d="M150.1,0.1c-82.8,0-150,67.2-150,150
		s67.2,150,150,150s150-67.2,150-150S232.9,0.1,150.1,0.1z M145.5,209.4c0,3-0.3,5.6-2.5,7.8c-2.2,2.2-4.4,3.2-7.4,3.2
		c-3,0-6.2-1.1-8.3-3.2c-2.2-2.2-3.8-4.7-3.8-7.8v-42.9h-57v42.9c0,3-0.2,5.6-2.3,7.8c-2.2,2.2-4.3,3.2-7.3,3.2
		c-3,0-6.3-1.1-8.4-3.2c-2.2-2.2-3.9-4.7-3.9-7.8V99.1c0-3,2-5.6,4.1-7.8c2.2-2.2,5.2-3.2,8.2-3.2c3,0,5,1.1,7.1,3.2
		c2.1,2.2,2.5,4.7,2.5,7.8v45.4h57V99.1c0-3,1.9-5.6,4-7.8c2.2-2.2,5.1-3.2,8.1-3.2c3,0,5,1.1,7.2,3.2c2.2,2.2,2.7,4.7,2.7,7.8
		V209.4z M254.8,111.5h-29.3v98c0,3-0.2,5.6-2.3,7.8c-2.1,2.1-4.2,3.1-7.2,3.1c-3,0-5.9-1-8-3.1c-2.2-2.2-3.5-4.7-3.5-7.8v-98h-26.4
		c-3,0-5.6-2-7.8-4.2c-2.1-2.1-3.1-5.1-3.1-8.1c0-3,1-5,3.1-7.1c2.2-2.2,4.7-2.6,7.8-2.6h76.7c3,0,5.5,0.3,7.7,2.4
		c2.1,2.1,3.1,4.2,3.1,7.3c0,3-1,6.3-3.1,8.4C260.3,109.7,257.8,111.5,254.8,111.5z"/>
</g>
</svg>
