<?xml version="1.0" encoding="utf-8"?>
<!-- Generator: Adobe Illustrator 18.1.1, SVG Export Plug-In . SVG Version: 6.00 Build 0)  -->
<svg version="1.1" xmlns="http://www.w3.org/2000/svg" xmlns:xlink="http://www.w3.org/1999/xlink" x="0px" y="0px"
	 viewBox="0 0 600 600" enable-background="new 0 0 600 600" xml:space="preserve">
<g id="Layer_3">
	<rect fill="#BF2626" width="600" height="600"/>
</g>
<g id="Layer_2">
	<g>
		<g>
			<defs>
				<rect id="SVGID_1_" x="5.1" y="227.1" width="118.5" height="118.5"/>
			</defs>
			<clipPath id="SVGID_2_">
				<use xlink:href="#SVGID_1_"  overflow="visible"/>
			</clipPath>
			<g clip-path="url(#SVGID_2_)">
				<defs>
					<rect id="SVGID_3_" x="5.1" y="227.1" width="118.5" height="118.5"/>
				</defs>
				<clipPath id="SVGID_4_">
					<use xlink:href="#SVGID_3_"  overflow="visible"/>
				</clipPath>
				<path clip-path="url(#SVGID_4_)" fill="#FFFFFF" d="M81.5,244.6c-3.2-2.4-7.7-0.3-8,3.7v0c0,1.7,0.7,3.4,2.1,4.3
					c5.6,3.9,9.1,10.3,8.7,18.3c-0.5,11.3-9.8,20.3-22.2,20.3c-11.2,0-20.7-10-20.7-20.8c0-7.3,3.5-14,8.5-17.8c1.3-1,2.1-2.6,2-4.3
					l0-0.1c-0.2-3.9-4.7-6-7.9-3.7c-10,7.3-12.6,17.5-12.8,23.9c-0.6,16.5,11.2,30,26.1,32.5c0,0.2-0.1,0.4-0.1,0.6v5.8h-6.1
					c-2.7,0-5,2.3-5,5v0.8c0,2.7,2.2,5,5,5h6.1v10.4c0,2.7,2.3,4.9,5,4.9h0.8c2.7,0,5-2.2,5-4.9v-10.4h6.1c2.7,0,5-2.3,5-5v-0.8
					c0-2.7-2.2-5-5-5h-6.1v-5.8c0-0.2,0-0.4-0.1-0.7c12.6-2.4,25.6-12.8,26.3-30.3C95,259.9,89.3,250.5,81.5,244.6"/>
				<path clip-path="url(#SVGID_4_)" fill="#FFFFFF" d="M68.1,245.2c0-2.7-2.2-5-5-5h-0.7c-2.7,0-5,2.2-5,5v32.1c0,2.7,2.2,5,5,5
					h0.7c2.7,0,5-2.2,5-5V245.2z"/>
			</g>
			<g clip-path="url(#SVGID_2_)">
				<defs>
					<rect id="SVGID_5_" x="5.1" y="227.1" width="118.5" height="118.5"/>
				</defs>
				<clipPath id="SVGID_6_">
					<use xlink:href="#SVGID_5_"  overflow="visible"/>
				</clipPath>
				<g opacity="0.47" clip-path="url(#SVGID_6_)">
					<g>
						<defs>
							<rect id="SVGID_7_" x="35.3" y="240.5" width="63.1" height="63.1"/>
						</defs>
						<clipPath id="SVGID_8_">
							<use xlink:href="#SVGID_7_"  overflow="visible"/>
						</clipPath>
					</g>
				</g>
				<g opacity="0.42" clip-path="url(#SVGID_6_)">
					<g>
						<defs>
							<rect id="SVGID_9_" x="45.5" y="250.6" width="42.8" height="42.8"/>
						</defs>
						<clipPath id="SVGID_10_">
							<use xlink:href="#SVGID_9_"  overflow="visible"/>
						</clipPath>
					</g>
				</g>
			</g>
		</g>
	</g>
	<text transform="matrix(1 0 0 1 96.5599 331.0666)"><tspan x="0" y="0" fill="#FFFFFF" font-family="'Campton-LightDEMO'" font-size="134" letter-spacing="-2">N</tspan><tspan x="100.9" y="0" fill="#FFFFFF" font-family="'Campton-LightDEMO'" font-size="134">U</tspan><tspan x="201.4" y="0" fill="#FFFFFF" font-family="'Campton-BoldDEMO'" font-size="134" letter-spacing="2">W</tspan><tspan x="348.8" y="0" fill="#FFFFFF" font-family="'Campton-BoldDEMO'" font-size="134" letter-spacing="4">I</tspan><tspan x="391.5" y="0" fill="#FFFFFF" font-family="'Campton-BoldDEMO'" font-size="134">T</tspan></text>
</g>
</svg>
