<?xml version="1.0" encoding="utf-8"?>
<!-- Generator: Adobe Illustrator 18.1.1, SVG Export Plug-In . SVG Version: 6.00 Build 0)  -->
<svg version="1.1" xmlns="http://www.w3.org/2000/svg" xmlns:xlink="http://www.w3.org/1999/xlink" x="0px" y="0px"
	 viewBox="0 0 400 400" enable-background="new 0 0 400 400" xml:space="preserve">
<g id="Layer_2">
	<rect fill="#FFFFFF" width="400" height="400"/>
</g>
<g id="Layer_1">
	<path fill="#008481" d="M217.3,104.1c0.1,0.9,0.2,1.7,0.2,2.6v43.1c0,0-9,69.1-9.3,73.9c-0.6,4.8-3.9,8.7-8.7,8.7
		c-4.8,0-8.4-3.9-9-8.7c-0.3-4.8-9.3-73.9-9.3-73.9v-43.1c0-1.2,0.1-2.3,0.3-3.4L81.4,56v177l119,118.3l118.3-117.4V56L217.3,104.1z
		 M199.6,293.5c-11.6,0-20.9-9.3-20.9-20.6c0-11.6,9.3-20.6,20.9-20.6c11.3,0,20.6,9,20.6,20.6C220.1,284.2,210.8,293.5,199.6,293.5
		z"/>
</g>
</svg>
